<?xml version="1.0" standalone="no"?><!DOCTYPE svg PUBLIC "-//W3C//DTD SVG 1.1//EN" "http://www.w3.org/Graphics/SVG/1.1/DTD/svg11.dtd"><svg t="1549719659195" class="icon" style="" viewBox="0 0 1024 1024" version="1.1" xmlns="http://www.w3.org/2000/svg" p-id="1151" xmlns:xlink="http://www.w3.org/1999/xlink" width="16" height="16"><defs><style type="text/css"></style></defs><path d="M512 192c-176.7 0-320 143.3-320 320s143.3 320 320 320 320-143.3 320-320-143.3-320-320-320z m181 280.2L534.6 630.6c-12.5 12.5-32.8 12.5-45.3 0L331 472.2c-12.5-12.5-12.5-32.8 0-45.3s32.8-12.5 45.3 0L512 562.7 647.8 427c12.5-12.5 32.8-12.5 45.3 0 12.4 12.5 12.4 32.7-0.1 45.2z" fill="" p-id="1152"></path></svg>