<?xml version="1.0" standalone="no"?><!DOCTYPE svg PUBLIC "-//W3C//DTD SVG 1.1//EN" "http://www.w3.org/Graphics/SVG/1.1/DTD/svg11.dtd"><svg t="1549719667596" class="icon" style="" viewBox="0 0 1024 1024" version="1.1" xmlns="http://www.w3.org/2000/svg" p-id="1292" xmlns:xlink="http://www.w3.org/1999/xlink" width="16" height="16"><defs><style type="text/css"></style></defs><path d="M512 192c-176.7 0-320 143.3-320 320s143.3 320 320 320 320-143.3 320-320-143.3-320-320-320z m181 405c-12.5 12.5-32.8 12.5-45.3 0L512 461.3 376.2 597c-12.5 12.5-32.8 12.5-45.3 0s-12.5-32.8 0-45.3l158.4-158.4c12.5-12.5 32.8-12.5 45.3 0L693 551.8c12.5 12.5 12.5 32.7 0 45.2z" fill="" p-id="1293"></path></svg>